<svg xmlns="http://www.w3.org/2000/svg" viewBox="0 0 512 512" fill="#ffffff">
  <!-- Robot Head -->
  <rect x="128" y="80" width="256" height="240" rx="32" ry="32" fill="#2563eb"/>
  
  <!-- Robot Eyes -->
  <circle cx="192" cy="160" r="24" fill="#60a5fa"/>
  <circle cx="320" cy="160" r="24" fill="#60a5fa"/>
  <circle cx="192" cy="160" r="12" fill="#ffffff"/>
  <circle cx="320" cy="160" r="12" fill="#ffffff"/>
  
  <!-- Robot Mouth -->
  <rect x="176" y="220" width="160" height="32" rx="16" ry="16" fill="#60a5fa"/>
  <rect x="192" y="220" width="16" height="32" fill="#2563eb"/>
  <rect x="224" y="220" width="16" height="32" fill="#2563eb"/>
  <rect x="256" y="220" width="16" height="32" fill="#2563eb"/>
  <rect x="288" y="220" width="16" height="32" fill="#2563eb"/>
  
  <!-- Robot Antenna -->
  <rect x="240" y="40" width="32" height="40" fill="#2563eb"/>
  <circle cx="256" cy="32" r="16" fill="#60a5fa"/>
  
  <!-- Robot Body -->
  <rect x="176" y="320" width="160" height="80" rx="16" ry="16" fill="#2563eb"/>
  
  <!-- Robot Arms -->
  <rect x="80" y="340" width="96" height="24" rx="12" ry="12" fill="#2563eb"/>
  <rect x="336" y="340" width="96" height="24" rx="12" ry="12" fill="#2563eb"/>
  
  <!-- Robot Legs -->
  <rect x="192" y="400" width="32" height="80" rx="16" ry="16" fill="#2563eb"/>
  <rect x="288" y="400" width="32" height="80" rx="16" ry="16" fill="#2563eb"/>
  
  <!-- Robot Details -->
  <rect x="208" y="340" width="96" height="40" rx="8" ry="8" fill="#60a5fa"/>
  <circle cx="232" cy="360" r="8" fill="#ffffff"/>
  <circle cx="256" cy="360" r="8" fill="#ffffff"/>
  <circle cx="280" cy="360" r="8" fill="#ffffff"/>
</svg>